<svg xmlns="http://www.w3.org/2000/svg" viewBox="0 0 580 140" width="580" height="140" role="img" aria-label="SATCHEL :: Host-Free Embedded Lookup">
  <title>SATCHEL :: Host-Free Embedded Lookup</title>
  <defs>
    <filter id="punk" x="-5%" y="-5%" width="110%" height="110%">
      <feTurbulence type="fractalNoise" baseFrequency="0.04" numOctaves="4" result="n"/>
      <feDisplacementMap in="SourceGraphic" in2="n" scale="2"/>
    </filter>
  </defs>
  <g filter="url(#punk)" transform="translate(8,12) scale(0.55)">
    <rect x="56"  y="166" width="8" height="20" fill="#f5b941"/>
    <rect x="76"  y="166" width="8" height="20" fill="#f5b941"/>
    <rect x="96"  y="166" width="8" height="20" fill="#f5b941"/>
    <rect x="116" y="166" width="8" height="20" fill="#f5b941"/>
    <rect x="136" y="166" width="8" height="20" fill="#f5b941"/>
    <path d="M 40 20 L 136 20 L 160 44 L 160 166 L 40 166 Z" fill="none" stroke="#f5b941" stroke-width="6" stroke-linejoin="miter"/>
    <line x1="56" y1="58"  x2="120" y2="58"  stroke="#5eead4" stroke-width="5" stroke-linecap="round"/>
    <line x1="56" y1="88"  x2="144" y2="88"  stroke="#5eead4" stroke-width="5" stroke-linecap="round"/>
    <line x1="56" y1="118" x2="144" y2="118" stroke="#d8dde6" stroke-width="5" stroke-linecap="round"/>
    <line x1="56" y1="148" x2="144" y2="148" stroke="#5eead4" stroke-width="5" stroke-linecap="round"/>
    <circle cx="100" cy="118" r="7" fill="#0d1117" stroke="#f5b941" stroke-width="3.5"/>
    <circle cx="100" cy="118" r="2.8" fill="#5eead4"/>
    <circle cx="132" cy="58" r="2.8" fill="#f5b941"/>
  </g>
  <text x="138" y="74" font-family="JetBrains Mono, ui-monospace, 'SF Mono', monospace" font-size="48" font-weight="700" letter-spacing="8" fill="#f5b941">SATCHEL</text>
  <text x="138" y="104" font-family="JetBrains Mono, ui-monospace, 'SF Mono', monospace" font-size="14" font-weight="500" letter-spacing="3">
    <tspan fill="#6b7280">::</tspan>
    <tspan dx="10" fill="#d8dde6">HOST-FREE EMBEDDED LOOKUP</tspan>
  </text>
</svg>
